<mxfile host="app.diagrams.net" agent="Mozilla/5.0 (Macintosh; Intel Mac OS X 10_15_7) AppleWebKit/537.36 (KHTML, like Gecko) Chrome/128.0.0.0 Safari/537.36" version="24.7.16">
  <diagram name="Page-1" id="Jfm8ACmQ8QUZqS02X3if">
    <mxGraphModel grid="1" page="1" gridSize="10" guides="1" tooltips="1" connect="1" arrows="1" fold="1" pageScale="1" pageWidth="850" pageHeight="1100" math="0" shadow="0">
      <root>
        <mxCell id="0" />
        <mxCell id="1" parent="0" />
        <mxCell id="iJlyxI9HuftwUwJHrec4-6" style="edgeStyle=orthogonalEdgeStyle;rounded=0;orthogonalLoop=1;jettySize=auto;html=1;entryX=0;entryY=0.5;entryDx=0;entryDy=0;" edge="1" parent="1" source="iJlyxI9HuftwUwJHrec4-2" target="iJlyxI9HuftwUwJHrec4-5">
          <mxGeometry relative="1" as="geometry" />
        </mxCell>
        <mxCell id="iJlyxI9HuftwUwJHrec4-2" value="API GATEWAY" style="rounded=1;whiteSpace=wrap;html=1;" vertex="1" parent="1">
          <mxGeometry x="120" y="180" width="120" height="230" as="geometry" />
        </mxCell>
        <mxCell id="iJlyxI9HuftwUwJHrec4-4" value="" style="endArrow=classic;html=1;rounded=0;" edge="1" parent="1">
          <mxGeometry width="50" height="50" relative="1" as="geometry">
            <mxPoint x="50" y="290" as="sourcePoint" />
            <mxPoint x="120" y="290" as="targetPoint" />
          </mxGeometry>
        </mxCell>
        <mxCell id="iJlyxI9HuftwUwJHrec4-9" style="edgeStyle=orthogonalEdgeStyle;rounded=0;orthogonalLoop=1;jettySize=auto;html=1;" edge="1" parent="1" source="iJlyxI9HuftwUwJHrec4-5" target="iJlyxI9HuftwUwJHrec4-8">
          <mxGeometry relative="1" as="geometry" />
        </mxCell>
        <mxCell id="iJlyxI9HuftwUwJHrec4-5" value="LAMBDA" style="rounded=1;whiteSpace=wrap;html=1;" vertex="1" parent="1">
          <mxGeometry x="330" y="265" width="120" height="60" as="geometry" />
        </mxCell>
        <mxCell id="iJlyxI9HuftwUwJHrec4-8" value="DYNAMODB" style="shape=cylinder3;whiteSpace=wrap;html=1;boundedLbl=1;backgroundOutline=1;size=15;" vertex="1" parent="1">
          <mxGeometry x="570" y="222.5" width="120" height="145" as="geometry" />
        </mxCell>
      </root>
    </mxGraphModel>
  </diagram>
</mxfile>
